<?xml version="1.0" encoding="utf-8"?>
<!-- Generator: Adobe Illustrator 24.2.3, SVG Export Plug-In . SVG Version: 6.00 Build 0)  -->
<svg version="1.1" id="Layer_1" xmlns="http://www.w3.org/2000/svg" xmlns:xlink="http://www.w3.org/1999/xlink" x="0px" y="0px"
	 viewBox="0 0 200 200" style="enable-background:new 0 0 200 200;" xml:space="preserve">
<style type="text/css">
	.st0{fill:#F9A150;}
	.st1{fill:#FFFFFF;}
</style>
<g>
	<g>
		<path class="st0" d="M77.91,133.62L67.72,106.1L15.86,70.76c0,0-5.02,12.28,9.89,20.41c14.91,8.13,37.85,20.49,37.85,20.49
			L77.91,133.62z"/>
		<path class="st0" d="M64.05,116.89l-14.69,7.9c0,0-7.33,3.44-13.79-2.25L64.05,116.89z"/>
		<path class="st0" d="M63.78,114.56l-19.5,3.87c0,0-12.36,2.82-20.35-10.03L63.78,114.56z"/>
		<path class="st0" d="M62.72,112.86c0,0-45.53-24.16-45.75-24.16c-0.22,0-1.24,16.3,16.36,19.35
			C50.91,111.1,62.72,112.86,62.72,112.86z"/>
	</g>
	<g>
		<g>
			<path class="st1" d="M84.25,129.17v-22.28h14.75v3.88H88.97v5.31h9.06v3.88h-9.06v9.2H84.25z"/>
			<path class="st1" d="M106.72,106.89v22.28h-4.63v-22.28H106.72z"/>
			<path class="st1" d="M113.28,135.44c-0.59,0-1.14-0.04-1.65-0.14c-0.51-0.09-0.93-0.21-1.27-0.34l1.04-3.46
				c0.54,0.17,1.04,0.26,1.47,0.27c0.44,0.01,0.82-0.09,1.14-0.3s0.59-0.59,0.79-1.11l0.27-0.71l-5.99-17.19h4.87l3.46,12.27h0.17
				l3.49-12.27H126l-6.5,18.52c-0.31,0.9-0.73,1.68-1.27,2.36c-0.53,0.67-1.21,1.19-2.02,1.56S114.43,135.44,113.28,135.44z"/>
			<path class="st1" d="M140.54,113.3c-0.09-0.88-0.46-1.56-1.12-2.05c-0.66-0.49-1.56-0.73-2.69-0.73c-0.77,0-1.42,0.11-1.95,0.32
				s-0.93,0.51-1.21,0.89c-0.28,0.38-0.42,0.8-0.42,1.28c-0.01,0.4,0.07,0.75,0.26,1.04c0.18,0.3,0.44,0.55,0.77,0.77
				s0.7,0.4,1.13,0.55c0.43,0.16,0.88,0.29,1.37,0.4l2,0.48c0.97,0.22,1.86,0.51,2.68,0.87c0.81,0.36,1.52,0.81,2.11,1.34
				s1.06,1.15,1.39,1.87s0.5,1.54,0.51,2.47c-0.01,1.36-0.35,2.54-1.04,3.54c-0.69,1-1.67,1.77-2.96,2.32
				c-1.29,0.55-2.84,0.82-4.65,0.82c-1.8,0-3.36-0.28-4.69-0.83c-1.33-0.55-2.37-1.37-3.11-2.45c-0.74-1.08-1.13-2.43-1.17-4.03
				h4.56c0.05,0.75,0.27,1.37,0.65,1.87c0.38,0.5,0.89,0.87,1.53,1.12c0.64,0.25,1.37,0.38,2.18,0.38c0.8,0,1.49-0.12,2.08-0.35
				c0.59-0.23,1.05-0.55,1.38-0.97c0.33-0.41,0.49-0.89,0.49-1.42c0-0.5-0.15-0.92-0.44-1.26c-0.29-0.34-0.72-0.63-1.28-0.87
				c-0.56-0.24-1.25-0.46-2.06-0.65l-2.43-0.61c-1.88-0.46-3.36-1.17-4.45-2.14s-1.63-2.28-1.62-3.93
				c-0.01-1.35,0.35-2.53,1.08-3.54c0.73-1.01,1.73-1.8,3.01-2.36s2.73-0.85,4.35-0.85c1.65,0,3.1,0.28,4.33,0.85
				s2.2,1.35,2.89,2.36c0.69,1.01,1.04,2.18,1.07,3.5H140.54z"/>
			<path class="st1" d="M150.76,110.3c-0.69,0-1.28-0.23-1.77-0.69c-0.49-0.46-0.73-1.01-0.73-1.65s0.25-1.2,0.74-1.66
				s1.08-0.69,1.76-0.69c0.69,0,1.28,0.23,1.77,0.69c0.49,0.46,0.73,1.01,0.73,1.65s-0.24,1.2-0.73,1.66
				C152.04,110.07,151.45,110.3,150.76,110.3z M148.43,129.17v-16.71h4.63v16.71H148.43z"/>
			<path class="st1" d="M165.66,112.46v3.48h-10.06v-3.48H165.66z M157.88,108.46h4.63v15.58c0,0.43,0.07,0.76,0.2,1
				c0.13,0.24,0.31,0.4,0.55,0.5c0.24,0.09,0.51,0.14,0.82,0.14c0.22,0,0.43-0.02,0.65-0.06s0.38-0.07,0.5-0.09l0.73,3.45
				c-0.23,0.07-0.56,0.16-0.98,0.25c-0.42,0.1-0.93,0.16-1.53,0.18c-1.12,0.04-2.09-0.11-2.93-0.45s-1.49-0.87-1.95-1.59
				s-0.69-1.63-0.69-2.72V108.46z"/>
			<path class="st1" d="M176.28,129.5c-1.72,0-3.2-0.35-4.43-1.05c-1.24-0.7-2.19-1.69-2.86-2.98s-1-2.81-1-4.58
				c0-1.72,0.33-3.23,1-4.53c0.67-1.3,1.61-2.31,2.82-3.04c1.21-0.72,2.64-1.09,4.28-1.09c1.1,0,2.13,0.18,3.08,0.53
				c0.95,0.35,1.79,0.88,2.5,1.58c0.71,0.7,1.27,1.59,1.67,2.65c0.4,1.06,0.6,2.3,0.6,3.73V122h-14.11v-2.87h9.75
				c0-0.67-0.14-1.26-0.43-1.77c-0.29-0.51-0.69-0.92-1.2-1.21c-0.51-0.29-1.1-0.44-1.78-0.44c-0.7,0-1.33,0.16-1.87,0.48
				c-0.54,0.32-0.96,0.75-1.27,1.29c-0.3,0.54-0.46,1.14-0.47,1.8v2.73c0,0.83,0.15,1.54,0.46,2.14c0.31,0.6,0.75,1.07,1.31,1.39
				c0.57,0.33,1.24,0.49,2.01,0.49c0.52,0,0.99-0.07,1.42-0.22c0.43-0.15,0.79-0.36,1.1-0.65c0.3-0.29,0.54-0.65,0.7-1.07l4.29,0.28
				c-0.22,1.03-0.66,1.93-1.33,2.69c-0.67,0.76-1.53,1.36-2.59,1.78C178.88,129.28,177.66,129.5,176.28,129.5z"/>
		</g>
	</g>
</g>
</svg>
